<?xml version="1.0" encoding="UTF-8" standalone="no"?>
<!-- Created with Inkscape (http://www.inkscape.org/) -->

<svg
   width="210mm"
   height="297mm"
   viewBox="0 0 210 297"
   version="1.1"
   id="svg1"
   inkscape:version="1.3.2 (091e20e, 2023-11-25, custom)"
   sodipodi:docname="logoTameplate.svg"
   xmlns:inkscape="http://www.inkscape.org/namespaces/inkscape"
   xmlns:sodipodi="http://sodipodi.sourceforge.net/DTD/sodipodi-0.dtd"
   xmlns="http://www.w3.org/2000/svg"
   xmlns:svg="http://www.w3.org/2000/svg">
  <sodipodi:namedview
     id="namedview1"
     pagecolor="#ffffff"
     bordercolor="#000000"
     borderopacity="0.25"
     inkscape:showpageshadow="2"
     inkscape:pageopacity="0.0"
     inkscape:pagecheckerboard="0"
     inkscape:deskcolor="#d1d1d1"
     inkscape:document-units="mm"
     inkscape:zoom="1.3843855"
     inkscape:cx="343.47369"
     inkscape:cy="295.07676"
     inkscape:window-width="1920"
     inkscape:window-height="991"
     inkscape:window-x="-9"
     inkscape:window-y="-9"
     inkscape:window-maximized="1"
     inkscape:current-layer="svg1" />
  <defs
     id="defs1" />
  <g
     inkscape:label="Warstwa 1"
     inkscape:groupmode="layer"
     id="layer1">
    <path
       style="display:inline;fill:#666666;stroke-width:0.511577"
       d="m 244.91567,387.8867 c -24.79552,-1.68735 -45.74767,-11.11864 -62.76597,-28.25314 -33.82196,-34.05289 -36.44164,-88.34468 -6.07755,-125.9549 15.19985,-18.82717 37.19618,-31.04318 62.0429,-34.45652 l 2.39331,-0.32878 1.13058,-3.42135 c 4.69307,-14.20213 12.67285,-28.34725 22.82064,-40.4524 15.20269,-18.13505 37.83297,-32.3233 61.03521,-38.26656 27.92529,-7.15306 56.03701,-4.46382 81.8467,7.82967 17.55775,8.36299 32.75828,20.8732 44.58486,36.69386 l 3.34096,4.46927 h 5.41994 c 21.31763,0 42.11135,7.98918 58.76892,22.57968 2.38786,2.09155 5.60573,5.30425 7.15082,7.13934 l 2.80925,3.33652 4.34157,0.35393 c 23.36785,1.90494 44.04023,11.27106 60.06257,27.2128 25.92055,25.79015 34.73367,62.81428 23.17869,97.37423 -7.5765,22.66065 -23.6249,41.71822 -44.93328,53.35852 -8.18057,4.46887 -18.93087,8.1394 -29.87866,10.20163 -4.24915,0.80042 -15.48343,0.87136 -147.87035,0.93376 -78.79951,0.0371 -146.03001,-0.12016 -149.40111,-0.34956 z"
       id="path2"
       transform="scale(0.26458333)" />
    <path
       style="display:inline;fill:#f9f9f9;stroke-width:0.130752"
       d="M 63.397677,100.89355 C 57.060281,100.46229 51.7052,98.051775 47.355556,93.67243 38.711127,84.968978 38.041573,71.092742 45.802217,61.480086 49.687091,56.66812 55.30905,53.545876 61.659532,52.673473 l 0.611696,-0.08404 0.288961,-0.874452 c 1.199484,-3.629869 3.239005,-7.245166 5.832645,-10.339077 3.8856,-4.635069 9.669584,-8.261392 15.599762,-9.780408 7.137316,-1.828224 14.322293,-1.140891 20.918894,2.001156 4.48752,2.137467 8.37256,5.334905 11.39527,9.378448 l 0.8539,1.142284 h 1.38527 c 5.44849,0 10.76308,2.041924 15.02053,5.771056 0.6103,0.534571 1.43275,1.355693 1.82764,1.824717 l 0.71801,0.852769 1.10965,0.09046 c 5.9725,0.486876 11.25608,2.880727 15.35117,6.955218 6.62494,6.591608 8.87745,16.054467 5.92415,24.887516 -1.93645,5.791751 -6.0382,10.662605 -11.48432,13.637707 -2.09084,1.14219 -4.83847,2.080323 -7.63658,2.607403 -1.08602,0.20458 -3.95735,0.22271 -37.79362,0.23866 -20.140085,0.0101 -37.323279,-0.0307 -38.184883,-0.0893 z"
       id="path2-3" />
  </g>
  <g
     inkscape:groupmode="layer"
     id="layer4"
     inkscape:label="Layer 2">
    <rect
       style="fill:#000080;stroke-width:0.264999"
       id="rect6"
       width="37.841698"
       height="3.4401543"
       x="-4.6633635"
       y="109.43423"
       transform="rotate(-45)" />
    <rect
       style="fill:#000080;stroke-width:0.264999"
       id="rect6-5"
       width="37.841698"
       height="3.4401543"
       x="109.77188"
       y="-33.220161"
       transform="rotate(45)" />
    <rect
       style="fill:#000080;stroke-width:0.264999"
       id="rect6-5-5"
       width="37.841698"
       height="3.4401543"
       x="82.213051"
       y="79.904945"
       inkscape:transform-center-x="-20.163127"
       inkscape:transform-center-y="-12.040541" />
  </g>
  <g
     inkscape:groupmode="layer"
     id="layer3"
     inkscape:label="Layer 1"
     style="display:inline">
    <circle
       style="fill:#000080;stroke-width:0.264999"
       id="path5-8"
       cx="80.059364"
       cy="80.129311"
       r="9.3923712" />
    <ellipse
       style="fill:#f9f9f9;stroke-width:0.211741"
       id="path5-6-8"
       cx="80.074318"
       cy="80.165993"
       rx="7.5767341"
       ry="7.4333944" />
    <circle
       style="fill:#000080;stroke-width:0.149064"
       id="path5-0-6"
       cx="80.118507"
       cy="80.191673"
       r="5.283298" />
    <circle
       style="fill:#000080;stroke-width:0.264999"
       id="path5-63"
       cx="121.19711"
       cy="80.60672"
       r="9.3923712" />
    <ellipse
       style="fill:#f9f9f9;stroke-width:0.211741"
       id="path5-6-3"
       cx="121.21206"
       cy="80.643402"
       rx="7.5767341"
       ry="7.4333944" />
    <circle
       style="fill:#000080;stroke-width:0.149064"
       id="path5-0-1"
       cx="121.25626"
       cy="80.669083"
       r="5.283298" />
    <circle
       style="fill:#000080;stroke-width:0.264999"
       id="path5-7"
       cx="100.12162"
       cy="57.751835"
       r="9.3923712" />
    <ellipse
       style="fill:#f9f9f9;stroke-width:0.211741"
       id="path5-6-0"
       cx="100.13657"
       cy="57.788517"
       rx="7.5767341"
       ry="7.4333944" />
    <circle
       style="fill:#000080;stroke-width:0.149064"
       id="path5-0-3"
       cx="100.18077"
       cy="57.814198"
       r="5.283298" />
  </g>
</svg>
