<?xml version="1.0" encoding="UTF-8" standalone="no"?>
<!-- Created with Inkscape (http://www.inkscape.org/) -->

<svg
   width="210mm"
   height="297mm"
   viewBox="0 0 210 297"
   version="1.1"
   id="svg1"
   inkscape:version="1.3.2 (091e20e, 2023-11-25, custom)"
   sodipodi:docname="logoTameplate.svg"
   xmlns:inkscape="http://www.inkscape.org/namespaces/inkscape"
   xmlns:sodipodi="http://sodipodi.sourceforge.net/DTD/sodipodi-0.dtd"
   xmlns="http://www.w3.org/2000/svg"
   xmlns:svg="http://www.w3.org/2000/svg">
  <sodipodi:namedview
     id="namedview1"
     pagecolor="#ffffff"
     bordercolor="#000000"
     borderopacity="0.25"
     inkscape:showpageshadow="2"
     inkscape:pageopacity="0.0"
     inkscape:pagecheckerboard="0"
     inkscape:deskcolor="#d1d1d1"
     inkscape:document-units="mm"
     inkscape:zoom="0.97890838"
     inkscape:cx="341.70716"
     inkscape:cy="107.77311"
     inkscape:window-width="1920"
     inkscape:window-height="991"
     inkscape:window-x="-9"
     inkscape:window-y="-9"
     inkscape:window-maximized="1"
     inkscape:current-layer="layer1" />
  <defs
     id="defs1" />
  <g
     inkscape:label="Warstwa 1"
     inkscape:groupmode="layer"
     id="layer1">
    <path
       style="display:inline;fill:#1a1a1a;stroke-width:0.140421"
       d="M 63.174477,103.78192 C 56.368442,103.31876 50.617356,100.73001 45.946058,96.026817 36.662383,86.679753 35.943316,71.777385 44.277852,61.453882 48.450011,56.286076 54.487706,52.932944 61.3078,51.996029 l 0.656932,-0.09024 0.310326,-0.939115 c 1.288186,-3.898295 3.478534,-7.78094 6.263959,-11.103643 4.172937,-4.977828 10.384641,-8.872312 16.75335,-10.503658 7.665122,-1.96342 15.381433,-1.225258 22.465843,2.149139 4.81936,2.29553 8.99171,5.729415 12.23793,10.071975 l 0.91706,1.226754 h 1.4877 c 5.8514,0 11.559,2.192923 16.13129,6.19782 0.65543,0.574102 1.53869,1.455945 1.9628,1.959653 l 0.7711,0.91583 1.19171,0.09714 c 6.41415,0.522879 12.08844,3.093756 16.48637,7.469549 7.11483,7.07905 9.53391,17.24168 6.36223,26.727922 -2.07964,6.220046 -6.48471,11.451098 -12.33357,14.646195 -2.24547,1.22666 -5.19629,2.23416 -8.2013,2.8002 -1.16634,0.2197 -4.25,0.23919 -40.58843,0.25632 -21.629433,0.0102 -40.083296,-0.033 -41.008623,-0.096 z"
       id="path2-4" />
    <path
       style="display:inline;fill:#666666;stroke-width:0.511577"
       d="m 244.91567,387.8867 c -24.79552,-1.68735 -45.74767,-11.11864 -62.76597,-28.25314 -33.82196,-34.05289 -36.44164,-88.34468 -6.07755,-125.9549 15.19985,-18.82717 37.19618,-31.04318 62.0429,-34.45652 l 2.39331,-0.32878 1.13058,-3.42135 c 4.69307,-14.20213 12.67285,-28.34725 22.82064,-40.4524 15.20269,-18.13505 37.83297,-32.3233 61.03521,-38.26656 27.92529,-7.15306 56.03701,-4.46382 81.8467,7.82967 17.55775,8.36299 32.75828,20.8732 44.58486,36.69386 l 3.34096,4.46927 h 5.41994 c 21.31763,0 42.11135,7.98918 58.76892,22.57968 2.38786,2.09155 5.60573,5.30425 7.15082,7.13934 l 2.80925,3.33652 4.34157,0.35393 c 23.36785,1.90494 44.04023,11.27106 60.06257,27.2128 25.92055,25.79015 34.73367,62.81428 23.17869,97.37423 -7.5765,22.66065 -23.6249,41.71822 -44.93328,53.35852 -8.18057,4.46887 -18.93087,8.1394 -29.87866,10.20163 -4.24915,0.80042 -15.48343,0.87136 -147.87035,0.93376 -78.79951,0.0371 -146.03001,-0.12016 -149.40111,-0.34956 z"
       id="path2"
       transform="scale(0.26458333)" />
    <path
       style="display:inline;fill:#f9f9f9;stroke-width:0.127731"
       d="m 64.054297,100.46467 c -6.190962,-0.42129 -11.422305,-2.776107 -15.671444,-7.054261 -8.444687,-8.502345 -9.09877,-22.05795 -1.517447,-31.448492 3.795108,-4.700778 9.287164,-7.750878 15.490908,-8.603123 l 0.597562,-0.0821 0.282284,-0.854246 c 1.171769,-3.545996 3.164163,-7.077755 5.697873,-10.100177 3.795818,-4.527969 9.446154,-8.0705 15.239306,-9.554418 6.972398,-1.785979 13.991355,-1.114528 20.435531,1.954917 4.38383,2.088077 8.1791,5.211634 11.13196,9.161745 l 0.83418,1.115889 h 1.35326 c 5.32259,0 10.51438,1.994743 14.67345,5.637708 0.5962,0.522218 1.39965,1.324368 1.78541,1.782554 l 0.70143,0.833064 1.084,0.08837 c 5.8345,0.475626 10.99599,2.814164 14.99647,6.794508 6.47185,6.439299 8.67232,15.683504 5.78726,24.312453 -1.89171,5.657923 -5.89868,10.416229 -11.21896,13.322586 -2.04253,1.115799 -4.72667,2.032254 -7.46013,2.547153 -1.06092,0.19986 -3.86591,0.21757 -36.92034,0.23315 -19.674717,0.01 -36.460868,-0.03 -37.302563,-0.0872 z"
       id="path2-3" />
  </g>
  <g
     inkscape:groupmode="layer"
     id="layer4"
     inkscape:label="Layer 2">
    <rect
       style="fill:#000080;stroke-width:0.264999"
       id="rect6"
       width="37.841698"
       height="3.4401543"
       x="-4.6633635"
       y="109.43423"
       transform="rotate(-45)" />
    <rect
       style="fill:#000080;stroke-width:0.264999"
       id="rect6-5"
       width="37.841698"
       height="3.4401543"
       x="109.77188"
       y="-33.220161"
       transform="rotate(45)" />
    <rect
       style="fill:#000080;stroke-width:0.264999"
       id="rect6-5-5"
       width="37.841698"
       height="3.4401543"
       x="82.213051"
       y="79.904945"
       inkscape:transform-center-x="-20.163127"
       inkscape:transform-center-y="-12.040541" />
  </g>
  <g
     inkscape:groupmode="layer"
     id="layer3"
     inkscape:label="Layer 1"
     style="display:inline">
    <circle
       style="fill:#000080;stroke-width:0.264999"
       id="path5-8"
       cx="80.059364"
       cy="80.129311"
       r="9.3923712" />
    <ellipse
       style="fill:#f9f9f9;stroke-width:0.211741"
       id="path5-6-8"
       cx="80.074318"
       cy="80.165993"
       rx="7.5767341"
       ry="7.4333944" />
    <circle
       style="fill:#000080;stroke-width:0.149064"
       id="path5-0-6"
       cx="80.118507"
       cy="80.191673"
       r="5.283298" />
    <circle
       style="fill:#000080;stroke-width:0.264999"
       id="path5-63"
       cx="121.19711"
       cy="80.60672"
       r="9.3923712" />
    <ellipse
       style="fill:#f9f9f9;stroke-width:0.211741"
       id="path5-6-3"
       cx="121.21206"
       cy="80.643402"
       rx="7.5767341"
       ry="7.4333944" />
    <circle
       style="fill:#000080;stroke-width:0.149064"
       id="path5-0-1"
       cx="121.25626"
       cy="80.669083"
       r="5.283298" />
    <circle
       style="fill:#000080;stroke-width:0.264999"
       id="path5-7"
       cx="100.12162"
       cy="57.751835"
       r="9.3923712" />
    <ellipse
       style="fill:#f9f9f9;stroke-width:0.211741"
       id="path5-6-0"
       cx="100.13657"
       cy="57.788517"
       rx="7.5767341"
       ry="7.4333944" />
    <circle
       style="fill:#000080;stroke-width:0.149064"
       id="path5-0-3"
       cx="100.18077"
       cy="57.814198"
       r="5.283298" />
  </g>
</svg>
